#N canvas 218 112 925 742 12;
#X obj 330 652 dac~ 1 2;
#X obj 487 230 r resonance;
#X obj 388 229 r cutoff;
#X obj 343 499 *~;
#X obj 491 395 r volume;
#X obj 496 498 r panning;
#X obj 343 610 pan~;
#X obj 343 63 loadbang;
#X obj 343 139 soundfiler;
#X obj 343 165 bang;
#X obj 343 87 \$0;
#X obj 388 255 pow 2;
#X obj 388 280 * 10000;
#X obj 388 305 + 20;
#X obj 388 356 line~;
#X obj 487 335 line~;
#X obj 491 444 line~;
#X obj 496 547 line~;
#X obj 343 411 lpf2~;
#X msg 388 330 \$1 10;
#X msg 487 309 \$1 10;
#X msg 491 419 \$1 10;
#X msg 496 522 \$1 10;
#X obj 430 139 array define \$0-song;
#X obj 343 191 tabplay~ \$0-song;
#X msg 343 112 read -resize data/bensound-dance.wav \$1-song;
#X connect 1 0 20 0;
#X connect 2 0 11 0;
#X connect 3 0 6 0;
#X connect 4 0 21 0;
#X connect 5 0 22 0;
#X connect 6 0 0 0;
#X connect 6 1 0 1;
#X connect 7 0 10 0;
#X connect 8 0 9 0;
#X connect 9 0 24 0;
#X connect 10 0 25 0;
#X connect 11 0 12 0;
#X connect 12 0 13 0;
#X connect 13 0 19 0;
#X connect 14 0 18 1;
#X connect 15 0 18 2;
#X connect 16 0 3 1;
#X connect 17 0 6 1;
#X connect 18 0 3 0;
#X connect 19 0 14 0;
#X connect 20 0 15 0;
#X connect 21 0 16 0;
#X connect 22 0 17 0;
#X connect 24 0 18 0;
#X connect 24 1 9 0;
#X connect 25 0 8 0;
