#N canvas 122 101 925 742 12;
#X obj 330 652 dac~ 1 2;
#X obj 343 411 filterpack~;
#X obj 597 256 0;
#X obj 597 231 loadbang;
#X obj 487 230 r resonance;
#X obj 388 229 r cutoff;
#X obj 343 499 *~;
#X obj 491 395 r volume;
#X obj 496 498 r panning;
#X obj 343 610 pan~;
#X obj 343 63 loadbang;
#X obj 343 139 soundfiler;
#X obj 343 165 bang;
#X obj 343 87 \$0;
#X obj 430 139 array define \$0-beat;
#X obj 343 191 tabplay~ \$0-beat;
#X obj 343 532 *~ 0.5;
#X obj 388 255 pow 2;
#X obj 388 280 * 10000;
#X msg 343 112 read -resize data/beat.wav \$1-beat;
#X obj 388 305 + 20;
#X obj 388 356 line~;
#X obj 487 335 line~;
#X obj 491 444 line~;
#X obj 496 547 line~;
#X msg 388 330 \$1 200;
#X msg 487 309 \$1 200;
#X msg 491 419 \$1 200;
#X msg 496 522 \$1 200;
#X connect 1 0 6 0;
#X connect 2 0 1 3;
#X connect 3 0 2 0;
#X connect 4 0 26 0;
#X connect 5 0 17 0;
#X connect 6 0 16 0;
#X connect 7 0 27 0;
#X connect 8 0 28 0;
#X connect 9 0 0 0;
#X connect 9 1 0 1;
#X connect 10 0 13 0;
#X connect 11 0 12 0;
#X connect 12 0 15 0;
#X connect 13 0 19 0;
#X connect 15 0 1 0;
#X connect 15 1 12 0;
#X connect 16 0 9 0;
#X connect 17 0 18 0;
#X connect 18 0 20 0;
#X connect 19 0 11 0;
#X connect 20 0 25 0;
#X connect 21 0 1 1;
#X connect 22 0 1 2;
#X connect 23 0 6 1;
#X connect 24 0 9 1;
#X connect 25 0 21 0;
#X connect 26 0 22 0;
#X connect 27 0 23 0;
#X connect 28 0 24 0;
