#N canvas 326 48 603 736 12;
#X obj 36 672 dac~ 1 2;
#X obj 36 541 *~;
#X obj 61 570 r panning;
#X obj 36 640 pan~;
#X obj 36 26 loadbang;
#X obj 36 95 soundfiler;
#X obj 61 616 line~;
#X obj 36 476 lpf2~;
#X msg 61 593 \$1 10;
#X obj 110 398 r resonance;
#X obj 52 329 r cutoff;
#X obj 90 476 r volume;
#X obj 52 352 pow 2;
#X obj 52 375 * 10000;
#X obj 52 398 + 20;
#X obj 52 444 line~;
#X obj 110 444 line~;
#X obj 90 522 line~;
#X msg 52 421 \$1 10;
#X msg 110 421 \$1 10;
#X msg 90 499 \$1 10;
#X obj 36 133 r playMusic;
#X obj 36 156 t b b;
#X obj 86 156 r pattern;
#X obj 86 179 sel 1 7;
#X obj 68 209 f;
#X msg 36 49 0 \, 2 \, 3 \, 4 \, 5 \, 6 \, 8;
#X obj 36 278 tabplay~;
#X obj 68 232 change -1;
#X obj 89 301 s playMusic;
#X msg 36 72 read -resize data/pattern\$1.wav pattern\$1;
#X obj 405 72 array define pattern0;
#X obj 405 95 array define pattern2;
#X obj 405 118 array define pattern3;
#X obj 405 141 array define pattern4;
#X obj 405 164 array define pattern5;
#X obj 405 187 array define pattern6;
#X obj 405 210 array define pattern8;
#X msg 68 255 set pattern\$1;
#N canvas 0 23 1134 424 chord 0;
#X obj 92 147 -~ 0.5;
#X obj 92 196 clip~ -0.5 0.5;
#X obj 92 219 cos~;
#X obj 91 302 hip~ 5;
#X obj 91 365 outlet~;
#X obj 92 172 *~ 3;
#X obj 221 147 -~ 0.5;
#X obj 221 196 clip~ -0.5 0.5;
#X obj 221 219 cos~;
#X obj 221 172 *~ 3;
#X obj 356 150 -~ 0.5;
#X obj 356 199 clip~ -0.5 0.5;
#X obj 356 222 cos~;
#X obj 356 175 *~ 3;
#X obj 92 29 inlet;
#X obj 92 79 mtof;
#X obj 132 81 mtof;
#X obj 168 82 mtof;
#X obj 465 153 -~ 0.5;
#X obj 465 202 clip~ -0.5 0.5;
#X obj 465 225 cos~;
#X obj 465 178 *~ 3;
#X obj 210 81 mtof;
#X obj 92 52 unpack f f f f f f f f;
#X obj 247 81 mtof;
#X obj 286 82 mtof;
#X obj 324 82 mtof;
#X obj 364 82 mtof;
#X obj 92 124 phasor~;
#X obj 221 124 phasor~;
#X obj 356 127 phasor~;
#X obj 465 130 phasor~;
#X connect 0 0 5 0;
#X connect 1 0 2 0;
#X connect 2 0 3 0;
#X connect 3 0 4 0;
#X connect 5 0 1 0;
#X connect 6 0 9 0;
#X connect 7 0 8 0;
#X connect 8 0 3 0;
#X connect 9 0 7 0;
#X connect 10 0 13 0;
#X connect 11 0 12 0;
#X connect 12 0 3 0;
#X connect 13 0 11 0;
#X connect 14 0 23 0;
#X connect 15 0 28 0;
#X connect 16 0 29 0;
#X connect 17 0 30 0;
#X connect 18 0 21 0;
#X connect 19 0 20 0;
#X connect 20 0 3 0;
#X connect 21 0 19 0;
#X connect 22 0 31 0;
#X connect 23 0 15 0;
#X connect 23 1 16 0;
#X connect 23 2 17 0;
#X connect 23 3 22 0;
#X connect 23 4 24 0;
#X connect 23 5 25 0;
#X connect 23 6 26 0;
#X connect 23 7 27 0;
#X connect 28 0 0 0;
#X connect 29 0 6 0;
#X connect 30 0 10 0;
#X connect 31 0 18 0;
#X restore 218 331 pd chord;
#X msg 218 308 51 53 56 60 63 65 68 72;
#X obj 218 285 loadbang;
#X obj 218 426 vocoder~;
#X obj 271 361 adc~ 1;
#X obj 271 383 *~ 4;
#X obj 271 404 lop~ 200;
#X connect 1 0 3 0;
#X connect 2 0 8 0;
#X connect 3 0 0 0;
#X connect 3 1 0 1;
#X connect 4 0 26 0;
#X connect 6 0 3 1;
#X connect 7 0 1 0;
#X connect 8 0 6 0;
#X connect 9 0 19 0;
#X connect 10 0 12 0;
#X connect 11 0 20 0;
#X connect 12 0 13 0;
#X connect 13 0 14 0;
#X connect 14 0 18 0;
#X connect 15 0 7 1;
#X connect 16 0 7 2;
#X connect 17 0 1 1;
#X connect 18 0 15 0;
#X connect 19 0 16 0;
#X connect 20 0 17 0;
#X connect 21 0 22 0;
#X connect 22 0 27 0;
#X connect 22 1 25 0;
#X connect 23 0 24 0;
#X connect 24 2 25 1;
#X connect 25 0 28 0;
#X connect 26 0 30 0;
#X connect 27 0 7 0;
#X connect 27 1 29 0;
#X connect 28 0 38 0;
#X connect 30 0 5 0;
#X connect 38 0 27 0;
#X connect 39 0 42 0;
#X connect 40 0 39 0;
#X connect 41 0 40 0;
#X connect 42 0 1 0;
#X connect 43 0 44 0;
#X connect 44 0 45 0;
#X connect 45 0 42 1;
