#N canvas 236 48 618 736 12;
#X obj 36 672 dac~ 1 2;
#X obj 36 541 *~;
#X obj 61 570 r panning;
#X obj 36 640 pan~;
#X obj 36 26 loadbang;
#X obj 36 95 soundfiler;
#X obj 61 616 line~;
#X obj 36 476 lpf2~;
#X msg 61 593 \$1 10;
#X obj 110 398 r resonance;
#X obj 52 329 r cutoff;
#X obj 90 476 r volume;
#X obj 52 352 pow 2;
#X obj 52 375 * 10000;
#X obj 52 398 + 20;
#X obj 52 444 line~;
#X obj 110 444 line~;
#X obj 90 522 line~;
#X msg 52 421 \$1 10;
#X msg 110 421 \$1 10;
#X msg 90 499 \$1 10;
#X obj 36 133 r playMusic;
#X obj 36 156 t b b;
#X obj 86 156 r pattern;
#X obj 86 179 sel 1 7;
#X obj 68 209 f;
#X msg 36 49 0 \, 2 \, 3 \, 4 \, 5 \, 6 \, 8;
#X obj 36 278 tabplay~;
#X obj 182 133 loadbang;
#X obj 182 156 4;
#X obj 68 232 change -1;
#X obj 182 179 s pattern;
#X obj 89 301 s playMusic;
#X msg 36 72 read -resize data/pattern\$1.wav pattern\$1;
#X obj 405 72 array define pattern0;
#X obj 405 95 array define pattern2;
#X obj 405 118 array define pattern3;
#X obj 405 141 array define pattern4;
#X obj 405 164 array define pattern5;
#X obj 405 187 array define pattern6;
#X obj 405 210 array define pattern8;
#X msg 68 255 set pattern\$1;
#X connect 1 0 3 0;
#X connect 2 0 8 0;
#X connect 3 0 0 0;
#X connect 3 1 0 1;
#X connect 4 0 26 0;
#X connect 6 0 3 1;
#X connect 7 0 1 0;
#X connect 8 0 6 0;
#X connect 9 0 19 0;
#X connect 10 0 12 0;
#X connect 11 0 20 0;
#X connect 12 0 13 0;
#X connect 13 0 14 0;
#X connect 14 0 18 0;
#X connect 15 0 7 1;
#X connect 16 0 7 2;
#X connect 17 0 1 1;
#X connect 18 0 15 0;
#X connect 19 0 16 0;
#X connect 20 0 17 0;
#X connect 21 0 22 0;
#X connect 22 0 27 0;
#X connect 22 1 25 0;
#X connect 23 0 24 0;
#X connect 24 2 25 1;
#X connect 25 0 30 0;
#X connect 26 0 33 0;
#X connect 27 0 7 0;
#X connect 27 1 32 0;
#X connect 28 0 29 0;
#X connect 29 0 31 0;
#X connect 30 0 41 0;
#X connect 33 0 5 0;
#X connect 41 0 27 0;
