#N canvas 205 47 745 763 12;
#X obj 256 691 dac~ 1 2;
#X obj 330 411 r resonance;
#X obj 272 342 r cutoff;
#X obj 256 580 *~;
#X obj 330 495 r volume;
#X obj 330 579 r panning;
#X obj 256 659 pan~;
#X obj 256 36 loadbang;
#X obj 256 95 soundfiler;
#X obj 272 365 pow 2;
#X obj 272 388 * 10000;
#X obj 272 411 + 20;
#X obj 272 457 line~;
#X obj 330 457 line~;
#X obj 330 541 line~;
#X obj 330 625 line~;
#X obj 256 512 lpf2~;
#X msg 272 434 \$1 10;
#X msg 330 434 \$1 10;
#X msg 330 518 \$1 10;
#X msg 330 602 \$1 10;
#X obj 256 179 r playMusic;
#X msg 288 276 set loop\$1;
#X msg 256 59 read -resize data/bensound-dance0.wav loop0 \, read -resize
data/bensound-dance1.wav loop1, f 44;
#X obj 256 118 array define loop0;
#X obj 256 141 array define loop1;
#X obj 256 304 tabplay~ loop0;
#X obj 288 230 f;
#X obj 306 207 r setLoop;
#X obj 288 253 change;
#X obj 256 207 t b b;
#X connect 1 0 18 0;
#X connect 2 0 9 0;
#X connect 3 0 6 0;
#X connect 4 0 19 0;
#X connect 5 0 20 0;
#X connect 6 0 0 0;
#X connect 6 1 0 1;
#X connect 7 0 23 0;
#X connect 9 0 10 0;
#X connect 10 0 11 0;
#X connect 11 0 17 0;
#X connect 12 0 16 1;
#X connect 13 0 16 2;
#X connect 14 0 3 1;
#X connect 15 0 6 1;
#X connect 16 0 3 0;
#X connect 17 0 12 0;
#X connect 18 0 13 0;
#X connect 19 0 14 0;
#X connect 20 0 15 0;
#X connect 21 0 30 0;
#X connect 22 0 26 0;
#X connect 23 0 8 0;
#X connect 26 0 16 0;
#X connect 26 1 30 0;
#X connect 27 0 29 0;
#X connect 28 0 27 1;
#X connect 29 0 22 0;
#X connect 30 0 26 0;
#X connect 30 1 27 0;
