#N canvas 512 148 756 655 12;
#X obj 248 445 outlet~;
#X obj 248 328 *~;
#X obj 358 328 *~;
#X obj 247 148 inlet~;
#X obj 358 445 outlet~;
#X obj 376 174 clip~ 0 1;
#X obj 376 200 *~ 0.25;
#X obj 376 227 -~ 0.25;
#X obj 266 305 cos~;
#X obj 376 305 cos~;
#X obj 376 148 inlet~;
#X connect 1 0 0 0;
#X connect 2 0 4 0;
#X connect 3 0 1 0;
#X connect 3 0 2 0;
#X connect 5 0 6 0;
#X connect 6 0 7 0;
#X connect 6 0 8 0;
#X connect 7 0 9 0;
#X connect 8 0 1 1;
#X connect 9 0 2 1;
#X connect 10 0 5 0;
